<?xml version="1.0" encoding="UTF-8" standalone="no"?>
<svg
   class="img-fluid"
   id="outputsvg"
   style="transform: matrix(1, 0, 0, 1, 0, 0); transform-origin: 50% 50% 0px; cursor: move; transition: none;"
   width="240"
   height="288"
   viewBox="0 0 2400 2880"
   version="1.1"
   sodipodi:docname="copper.svg"
   inkscape:version="1.3 (0e150ed6c4, 2023-07-21)"
   xmlns:inkscape="http://www.inkscape.org/namespaces/inkscape"
   xmlns:sodipodi="http://sodipodi.sourceforge.net/DTD/sodipodi-0.dtd"
   xmlns="http://www.w3.org/2000/svg"
   xmlns:svg="http://www.w3.org/2000/svg">
  <defs
     id="defs4" />
  <sodipodi:namedview
     id="namedview4"
     pagecolor="#ffffff"
     bordercolor="#666666"
     borderopacity="1.0"
     inkscape:showpageshadow="2"
     inkscape:pageopacity="0.0"
     inkscape:pagecheckerboard="0"
     inkscape:deskcolor="#d1d1d1"
     inkscape:zoom="2.5520833"
     inkscape:cx="115.78776"
     inkscape:cy="144"
     inkscape:window-width="1920"
     inkscape:window-height="991"
     inkscape:window-x="-9"
     inkscape:window-y="-9"
     inkscape:window-maximized="1"
     inkscape:current-layer="outputsvg" />
  <g
     id="g5"
     inkscape:export-filename="copper.png"
     inkscape:export-xdpi="482.29999"
     inkscape:export-ydpi="482.29999">
    <g
       id="l4HYyAFoXc3Ol3136Z38ld"
       fill="#000000"
       style="display:inline">
      <g
         id="g2">
        <path
           id="pIx4xY0d0"
           d="m 1060,2110 c -30,-4 -86,-17 -125,-29 -75,-24 -207,-89 -212,-106 -2,-6 29,-47 68,-90 40,-44 101,-115 136,-157 36,-43 72,-78 81,-77 10,0 55,47 102,104 47,57 90,104 95,104 6,0 34,-30 62,-67 29,-37 70,-87 91,-111 l 38,-44 45,49 c 147,158 258,287 253,295 -9,15 -133,74 -204,98 -114,37 -290,50 -430,31 z" />
        <path
           id="pECXGRfrL"
           d="m 531,1888 c -88,-86 -201,-258 -201,-306 0,-10 12,-29 26,-43 14,-13 53,-55 87,-92 l 60,-68 -96,-97 c -54,-54 -97,-101 -97,-105 0,-4 44,-50 98,-102 l 97,-94 -87,-88 -87,-88 39,-68 c 74,-127 202,-272 233,-265 9,1 85,70 171,151 l 155,148 h 278 l 278,1 155,-156 c 85,-86 159,-156 165,-156 37,0 230,235 257,312 10,28 7,33 -33,76 -24,26 -60,64 -79,85 l -34,37 92,93 c 51,51 92,97 92,102 0,5 -45,55 -101,111 l -101,101 101,98 100,98 -46,86 c -55,104 -180,256 -210,256 -13,0 -73,-49 -160,-131 -76,-72 -155,-145 -175,-163 l -37,-33 H 1199 928 l -172,171 c -94,94 -174,171 -177,171 -3,0 -25,-19 -48,-42 z m 813,-374 46,-7 v -102 -103 l 98,-56 c 152,-87 150,-72 24,-144 -61,-34 -113,-69 -116,-78 -3,-9 -6,-54 -6,-100 v -84 l -182,2 -183,3 -5,102 c -3,56 -7,103 -10,105 -3,3 -32,19 -65,37 -78,43 -144,85 -145,91 0,3 47,31 104,63 57,31 107,64 110,73 3,9 6,55 6,104 0,76 2,89 18,93 27,7 254,8 306,1 z" />
        <path
           id="p1AbW5GPdk"
           d="M 865,571 C 788,485 725,408 725,400 c 0,-20 110,-77 193,-101 57,-16 100,-19 290,-19 253,0 285,6 414,72 66,34 76,43 68,58 -9,16 -105,127 -232,265 l -55,60 -29,-35 c -16,-19 -45,-53 -64,-75 -20,-22 -49,-58 -65,-79 l -29,-40 -54,60 c -30,32 -72,83 -94,112 -22,28 -45,52 -52,51 -6,0 -74,-71 -151,-158 z" />
      </g>
    </g>
    <g
       id="l3HBaZu21Vs5OUHbaCKcEgN"
       fill="#e15c45"
       style="display:inline">
      <g
         id="g3">
        <path
           id="p104LC9t13"
           d="m 1005,1544 c -18,-4 -20,-11 -16,-84 5,-123 7,-120 -128,-194 -65,-37 -124,-73 -131,-81 -9,-11 -3,-19 37,-40 26,-14 82,-46 123,-70 41,-25 80,-46 85,-48 6,-2 12,-51 15,-108 l 5,-104 h 214 214 l -2,85 c -1,57 2,90 11,101 10,13 102,68 247,148 20,10 25,29 9,33 -7,1 -71,36 -141,77 l -128,74 2,97 c 1,54 -1,102 -4,107 -6,10 -371,15 -412,7 z" />
      </g>
    </g>
    <g
       id="texts"
       style="transform: none;">
      <g
         style="transform: none;"
         id="g4">
        <text
           fill="#000000"
           font-family="Arial"
           x="49.804054%"
           y="82.533157%"
           text-anchor="middle"
           dominant-baseline="central"
           font-size="444px"
           id="text3"><tspan
             style="font-style:normal;font-variant:normal;font-weight:normal;font-stretch:normal;font-family:Serpentine;-inkscape-font-specification:Serpentine"
             id="tspan4">COPPER</tspan></text>
      </g>
    </g>
  </g>
</svg>
