<svg version="1.0" viewBox="0 0 290 315" xmlns="http://www.w3.org/2000/svg">
	<g transform="translate(-200.7 -212.29)" fill="#272727" fill-rule="evenodd" stroke="#000" stroke-width="3">
		<path d="m287.4 215.05c-96.388 40.394-106.08 161.58-41.875 227.09l17.25 21.688 24.125 38.406 0.5-82.75c-52.767-36.839-39.128-116.45-9.8438-141.88 46.498 15.354 92.235 15.286 136.28 0 29.284 25.422 42.923 105.04-9.8438 141.88l0.5 82.75 24.125-38.406 17.25-21.688c64.204-65.517 54.513-186.7-41.875-227.09-10.674 37.228-106.55 37.64-116.59 0z"/>
		<path d="m273.28 291.21c-8.0545 13.617-10.891 24.78-10.531 34.438 9.1075 7.5347 18.171 14.903 31.031 22.438l-0.53125 15.5c-9.5678-1.846-11.467-2.8862-25.312-8.375 1.7731 12.29 12.849 25.49 25.969 38.562 8.8738 52.016 15.831 112.74 41.375 130.75l1.5625-141.47h17l1.5938 141.47c25.544-18.01 32.47-78.734 41.344-130.75 13.119-13.073 24.227-26.273 26-38.562-13.845 5.4888-15.745 6.529-25.312 8.375l-0.5625-15.5c12.86-7.5347 21.924-14.903 31.031-22.438 0.35999-9.6574-2.4768-20.82-10.531-34.438-12.324 3.856-26.199 9.3056-51.125 10.25-5.9685 17.792-12.994 31.041-20.938 40.438-7.9387-9.3958-14.972-22.655-20.938-40.438-24.926-0.94444-38.801-6.394-51.125-10.25z"/>
	</g>
</svg>
